<?xml version="1.0" encoding="utf-8"?>
<svg xmlns="http://www.w3.org/2000/svg" fill-rule="evenodd" stroke-linejoin="round" stroke-miterlimit="2" clip-rule="evenodd" viewBox="0 0 390 122.09">
  <g font-family="&quot;Helvetica-Bold&quot;,&quot;Helvetica&quot;" font-size="12" font-weight="700" style="" transform="matrix(1.29314, 0, 0, 1, -110.312, 0)"/>
  <path d="M 57.829 114.468 L 4.704 114.468 L 140.23 16.003 C 153.366 6.459 171.154 6.459 184.29 16.003 L 319.814 114.468 L 266.69 114.468 C 266.69 114.468 203.48 68.543 175.414 48.155 C 167.57 42.455 156.948 42.455 149.104 48.155 C 121.04 68.543 57.83 114.468 57.83 114.468 L 57.829 114.468 Z" style="fill: rgb(78, 205, 196);"/>
  <path d="M 122.717 114.468 L 69.592 114.468 L 206.466 15.023 C 218.797 6.063 235.495 6.063 247.825 15.023 L 384.701 114.468 L 331.577 114.468 L 239.967 47.911 C 232.322 42.355 221.969 42.355 214.325 47.911 L 122.717 114.468 Z" style="fill: rgb(78, 205, 196);"/>
</svg>