<?xml version="1.0" encoding="utf-8"?>
<svg xmlns="http://www.w3.org/2000/svg" fill-rule="evenodd" stroke-linejoin="round" stroke-miterlimit="2" clip-rule="evenodd" viewBox="0 0 390 119.891">
  <path d="M63.829 114.468H10.704L146.23 16.003c13.136-9.544 30.924-9.544 44.06 0l135.524 98.465H272.69s-63.21-45.925-91.276-66.313a22.377 22.377 0 0 0-26.31 0c-28.064 20.388-91.274 66.313-91.274 66.313Z" style="stroke: rgb(186, 218, 85); stroke-opacity: 0; fill: rgb(138, 79, 255);"/>
  <path d="M56.013 78H33.441l58.156-42.253a14.947 14.947 0 0 1 17.573 0L167.327 78h-22.572l-38.924-28.279a9.265 9.265 0 0 0-10.895 0L56.013 78Z" transform="matrix(2.35356 0 0 2.35356 -15.113 -69.11)" style="fill: rgb(78, 205, 196);"/>
</svg>