<?xml version="1.0" encoding="utf-8"?>
<svg xmlns="http://www.w3.org/2000/svg" fill-rule="evenodd" stroke-linejoin="round" stroke-miterlimit="2" clip-rule="evenodd" viewBox="0 0 390 203.924" xmlns:bx="https://boxy-svg.com">
  <g font-family="&quot;Helvetica-Bold&quot;,&quot;Helvetica&quot;" font-size="12" font-weight="700" style="" transform="matrix(1.29314, 0, 0, 1, -110.312, 0)">
    <text style="fill: rgb(51, 51, 51); font-family: Barlow; font-size: 59.9597px; text-anchor: middle; white-space: pre;" transform="matrix(1.03177, 0, 0, 1.33423, 235.857, 194.341)"><tspan style="fill: rgb(78, 205, 196);">Inven</tspan><tspan style="fill: rgb(138, 79, 255);">Track</tspan></text>
  </g>
  <path d="M63.829 114.468H10.704L146.23 16.003c13.136-9.544 30.924-9.544 44.06 0l135.524 98.465H272.69s-63.21-45.925-91.276-66.313a22.377 22.377 0 0 0-26.31 0c-28.064 20.388-91.274 66.313-91.274 66.313Z" style="fill: rgb(138, 79, 255);"/>
  <path d="M56.013 78H33.441l58.156-42.253a14.947 14.947 0 0 1 17.573 0L167.327 78h-22.572l-38.924-28.279a9.265 9.265 0 0 0-10.895 0L56.013 78Z" transform="matrix(2.35356 0 0 2.35356 -15.113 -69.11)" style="fill: rgb(78, 205, 196);"/>
  <defs>
    <style bx:fonts="Barlow">@import url(https://fonts.googleapis.com/css2?family=Barlow%3Aital%2Cwght%400%2C100%3B0%2C200%3B0%2C300%3B0%2C400%3B0%2C500%3B0%2C600%3B0%2C700%3B0%2C800%3B0%2C900%3B1%2C100%3B1%2C200%3B1%2C300%3B1%2C400%3B1%2C500%3B1%2C600%3B1%2C700%3B1%2C800%3B1%2C900&amp;display=swap);</style>
  </defs>
</svg>